# Blender v2.79 (sub 0) OBJ File: 'wall.blend'
# www.blender.org
mtllib wall.mtl
o Cube
v -4.881146 17.818361 14.320269
v -4.881146 17.818361 -11.934697
v -4.580674 17.818361 -11.934695
v -4.580674 17.818361 14.320274
v -4.881146 -8.436605 14.320263
v -4.881145 -8.436605 -11.934705
v -4.580674 -8.436605 -11.934692
v -4.580674 -8.436605 14.320270
vn 0.0000 1.0000 0.0000
vn 0.0000 -1.0000 0.0000
vn -1.0000 -0.0000 -0.0000
vn 0.0000 0.0000 -1.0000
vn 1.0000 -0.0000 0.0000
vn -0.0000 -0.0000 1.0000
usemtl Material
s off
f 1//1 4//1 3//1 2//1
f 5//2 6//2 7//2 8//2
f 1//3 2//3 6//3 5//3
f 2//4 3//4 7//4 6//4
f 3//5 4//5 8//5 7//5
f 5//6 8//6 4//6 1//6
